<svg xmlns="http://www.w3.org/2000/svg" viewBox="0 0 35.33 35.33"><defs><style>.cls-1{fill:none;stroke:#444;stroke-miterlimit:10;stroke-width:3px;}.cls-2{fill:#444;}</style></defs><title>button-logo</title><g id="Layer_2" data-name="Layer 2"><g id="Layer_2-2" data-name="Layer 2"><circle class="cls-1" cx="17.67" cy="17.67" r="16.17"/><path class="cls-2" d="M17.67,5A12.67,12.67,0,1,0,30.34,17.67,12.67,12.67,0,0,0,17.67,5Zm0,4.67A2.66,2.66,0,1,1,15,12.33,2.66,2.66,0,0,1,17.67,9.67ZM12.35,20.31A2.66,2.66,0,1,1,15,17.65,2.66,2.66,0,0,1,12.35,20.31Zm5.32,5a2.66,2.66,0,1,1,2.66-2.66A2.66,2.66,0,0,1,17.67,25.34Zm5.32-5a2.66,2.66,0,1,1,2.66-2.66A2.66,2.66,0,0,1,23,20.31Z"/></g></g></svg>